<mxfile host="app.diagrams.net" modified="2024-06-04T12:44:07.492Z" agent="Mozilla/5.0 (Windows NT 10.0; Win64; x64) AppleWebKit/537.36 (KHTML, like Gecko) Chrome/125.0.0.0 Safari/537.36 Edg/125.0.0.0" etag="lKD5VBoh4YaQCOrVFW_K" version="24.4.13" type="github">
  <diagram name="第 1 页" id="0swGwOm9xw6mlgsu7MjJ">
    <mxGraphModel dx="1379" dy="785" grid="0" gridSize="10" guides="1" tooltips="1" connect="1" arrows="1" fold="1" page="1" pageScale="1" pageWidth="1169" pageHeight="827" math="0" shadow="0">
      <root>
        <mxCell id="0" />
        <mxCell id="1" parent="0" />
        <mxCell id="y2yn4il8-x6NuVb4HuvI-1" value="" style="rounded=1;whiteSpace=wrap;html=1;fillColor=#f5f5f5;strokeColor=#666666;fontColor=#333333;" vertex="1" parent="1">
          <mxGeometry x="904" y="71" width="156" height="551" as="geometry" />
        </mxCell>
        <mxCell id="y2yn4il8-x6NuVb4HuvI-2" value="&lt;font style=&quot;font-size: 16px;&quot;&gt;进程地址空间&lt;/font&gt;" style="text;html=1;align=center;verticalAlign=middle;resizable=0;points=[];autosize=1;strokeColor=none;fillColor=none;" vertex="1" parent="1">
          <mxGeometry x="922" y="15" width="114" height="31" as="geometry" />
        </mxCell>
        <mxCell id="y2yn4il8-x6NuVb4HuvI-20" value="&lt;font style=&quot;font-size: 20px;&quot;&gt;堆内存&lt;/font&gt;" style="rounded=0;whiteSpace=wrap;html=1;shadow=0;glass=0;labelBorderColor=none;" vertex="1" parent="1">
          <mxGeometry x="904" y="316" width="155" height="232" as="geometry" />
        </mxCell>
        <mxCell id="y2yn4il8-x6NuVb4HuvI-23" value="Windows API ：&amp;nbsp;&lt;div&gt;&lt;span style=&quot;background-color: initial;&quot;&gt;VirtualAlloc 和 VirtualFree申请&lt;/span&gt;&lt;/div&gt;" style="text;html=1;align=center;verticalAlign=middle;resizable=0;points=[];autosize=1;strokeColor=none;fillColor=none;fontFamily=Helvetica;fontSize=18;fontColor=default;" vertex="1" parent="1">
          <mxGeometry x="610" y="355" width="259" height="55" as="geometry" />
        </mxCell>
        <mxCell id="y2yn4il8-x6NuVb4HuvI-24" value="Linux API ： brk&lt;span style=&quot;background-color: initial;&quot;&gt;&amp;nbsp;和 mmap申请&lt;/span&gt;" style="text;html=1;align=center;verticalAlign=middle;resizable=0;points=[];autosize=1;strokeColor=none;fillColor=none;fontFamily=Helvetica;fontSize=18;fontColor=default;" vertex="1" parent="1">
          <mxGeometry x="609" y="431" width="261" height="34" as="geometry" />
        </mxCell>
        <mxCell id="y2yn4il8-x6NuVb4HuvI-26" value="malloc" style="text;html=1;align=center;verticalAlign=middle;resizable=0;points=[];autosize=1;strokeColor=none;fillColor=none;fontFamily=Helvetica;fontSize=18;fontColor=default;" vertex="1" parent="1">
          <mxGeometry x="418" y="390" width="70" height="34" as="geometry" />
        </mxCell>
        <mxCell id="y2yn4il8-x6NuVb4HuvI-28" value="" style="html=1;shadow=0;dashed=0;align=center;verticalAlign=middle;shape=mxgraph.arrows2.arrow;dy=0.67;dx=20;notch=0;fontFamily=Helvetica;fontSize=18;fontColor=default;autosize=1;resizable=0;fillColor=none;gradientColor=none;" vertex="1" parent="1">
          <mxGeometry x="526" y="387" width="50" height="44" as="geometry" />
        </mxCell>
        <mxCell id="y2yn4il8-x6NuVb4HuvI-29" value="空间配置器" style="text;html=1;align=center;verticalAlign=middle;resizable=0;points=[];autosize=1;strokeColor=none;fillColor=none;fontFamily=Helvetica;fontSize=18;fontColor=default;" vertex="1" parent="1">
          <mxGeometry x="167" y="392" width="108" height="34" as="geometry" />
        </mxCell>
        <mxCell id="y2yn4il8-x6NuVb4HuvI-30" value="" style="html=1;shadow=0;dashed=0;align=center;verticalAlign=middle;shape=mxgraph.arrows2.arrow;dy=0.67;dx=20;notch=0;fontFamily=Helvetica;fontSize=18;fontColor=default;autosize=1;resizable=0;fillColor=none;gradientColor=none;" vertex="1" parent="1">
          <mxGeometry x="321" y="385" width="50" height="44" as="geometry" />
        </mxCell>
        <mxCell id="y2yn4il8-x6NuVb4HuvI-58" value="&lt;font style=&quot;font-size: 15px;&quot;&gt;（小型内存池）&lt;/font&gt;" style="text;html=1;align=center;verticalAlign=middle;resizable=0;points=[];autosize=1;strokeColor=none;fillColor=none;fontFamily=Helvetica;fontSize=12;fontColor=default;" vertex="1" parent="1">
          <mxGeometry x="159.5" y="431" width="123" height="30" as="geometry" />
        </mxCell>
      </root>
    </mxGraphModel>
  </diagram>
</mxfile>
